# xmcd
#
# Track frame offsets:
#	182
#	13010
#	27522
#	41292
#	53480
#	65882
#	80155
#	92255
#	109417
#	123157
#
# Disc length: 1835 seconds
# Revision: 0
# Processed by: cddbd v1.5.2PL0 Copyright (c) Steve Scherf et al.
# Submitted via: dBpowerAMP V12.0
#
DISCID=7c07290a
DTITLE=Tina Felton - Light In The Forrest
DYEAR=1994
DGENRE=Country
TTITLE0=I'll Take You Back
TTITLE1=It's Easier Said Than Done
TTITLE2=Blind
TTITLE3=No More Lonely Nights
TTITLE4=Payin' Hard To Get
TTITLE5=Two Hearts Running
TTITLE6=Flavor Of The Month
TTITLE7=Light In The Forest
TTITLE8=You Don't Find Love
TTITLE9=Between Good And Goodbye
EXTD=
EXTT0=
EXTT1=
EXTT2=
EXTT3=
EXTT4=
EXTT5=
EXTT6=
EXTT7=
EXTT8=
EXTT9=
PLAYORDER=
